<svg width="41" height="48" viewBox="0 0 41 48" fill="none" xmlns="http://www.w3.org/2000/svg">
<path fill-rule="evenodd" clip-rule="evenodd" d="M39.8696 40.9854C40.0351 41.1973 40.1095 41.4661 40.0767 41.7329C40.0438 41.9996 39.9064 42.2424 39.6946 42.4078L33.9146 46.9211C33.4735 47.2656 32.8367 47.1872 32.4921 46.7461C32.1477 46.305 32.2261 45.6682 32.6673 45.3237L36.7302 42.1512C29.2428 41.9745 21.2436 37.5646 16.932 31.3027C15.3402 28.9909 14.6119 26.9163 14.6182 25.1523C14.6198 24.7269 14.6643 24.3229 14.7482 23.9424C8.89537 19.5611 2.5537 12.0444 0.0268743 1.2455C-0.100631 0.700576 0.23776 0.155427 0.782693 0.0278787C1.32763 -0.0996699 1.87277 0.238755 2.00027 0.783682C4.35223 10.8351 10.1846 17.884 15.6158 22.0571C15.9106 21.6745 16.2643 21.3429 16.6675 21.068C19.1366 19.3846 22.9981 20.0553 25.685 22.8826C26.824 24.0814 27.5748 25.196 27.7333 26.1845C27.8199 26.7243 27.7381 27.2956 27.3674 27.7706C27.0126 28.2247 26.5034 28.4487 26.0208 28.55C25.0834 28.7469 23.8612 28.5672 22.5606 28.1667C21.2248 27.7553 19.6783 27.0702 18.0341 26.1197C17.5795 25.857 17.116 25.5731 16.6459 25.2679C16.6714 26.4691 17.1916 28.1059 18.6013 30.1533C22.5319 35.8617 29.8585 39.9028 36.6231 40.1207L33.7588 36.4528C33.4144 36.0116 33.4928 35.3748 33.934 35.0304C34.3751 34.6859 35.0119 34.7643 35.3563 35.2054L39.8696 40.9854ZM17.8091 22.7426C17.6062 22.881 17.4209 23.0476 17.2609 23.2445C17.8691 23.6554 18.4669 24.029 19.0483 24.3651C20.5886 25.2553 21.9949 25.8718 23.1572 26.2298C24.3549 26.5986 25.1761 26.6564 25.6042 26.5666C25.6643 26.5539 25.7066 26.5405 25.7357 26.5293C25.7347 26.5222 25.7336 26.5141 25.7322 26.5054C25.6777 26.1656 25.3145 25.4348 24.2158 24.2787C22.004 21.9514 19.2294 21.7743 17.8091 22.7426ZM25.7381 26.5875L25.7385 26.5845L25.7381 26.5875Z" fill="#20A0FF"/>
</svg>
